<svg width="468" height="360" viewBox="0 0 468 360" fill="none" xmlns="http://www.w3.org/2000/svg">
<path d="M107.761 249.141L143.995 192.096L62.8476 140.437L20.9409 206.413L88.0602 249.141H107.761Z" fill="#F0F0F0"/>
<path d="M159.108 266.937H69.355V248.849H159.108V266.937ZM70.5206 265.77H157.943V250.016H70.5206V265.77Z" fill="#3F3D56"/>
<path d="M148.035 263.728C151.253 263.728 153.863 261.115 153.863 257.893C153.863 254.671 151.253 252.058 148.035 252.058C144.816 252.058 142.207 254.671 142.207 257.893C142.207 261.115 144.816 263.728 148.035 263.728Z" fill="#1E1D1C"/>
<path d="M131.716 263.728C134.935 263.728 137.544 261.115 137.544 257.893C137.544 254.671 134.935 252.058 131.716 252.058C128.497 252.058 125.888 254.671 125.888 257.893C125.888 261.115 128.497 263.728 131.716 263.728Z" fill="#1E1D1C"/>
<path d="M115.397 263.728C118.616 263.728 121.226 261.115 121.226 257.893C121.226 254.671 118.616 252.058 115.397 252.058C112.179 252.058 109.569 254.671 109.569 257.893C109.569 261.115 112.179 263.728 115.397 263.728Z" fill="#1E1D1C"/>
<path d="M99.0786 263.728C102.297 263.728 104.907 261.115 104.907 257.893C104.907 254.671 102.297 252.058 99.0786 252.058C95.8598 252.058 93.2505 254.671 93.2505 257.893C93.2505 261.115 95.8598 263.728 99.0786 263.728Z" fill="#1E1D1C"/>
<path d="M82.7598 263.728C85.9786 263.728 88.5879 261.115 88.5879 257.893C88.5879 254.671 85.9786 252.058 82.7598 252.058C79.541 252.058 76.9316 254.671 76.9316 257.893C76.9316 261.115 79.541 263.728 82.7598 263.728Z" fill="#1E1D1C"/>
<path d="M265.763 65.9319V21.5883H287.91V0H179.507V108.525H272.174V97.9144C272.174 95.9364 272.563 93.9779 273.32 92.1505C274.076 90.3231 275.184 88.6627 276.581 87.264C277.978 85.8654 279.637 84.756 281.462 83.999C283.287 83.2421 285.244 82.8525 287.219 82.8525H287.91V65.9319H265.763Z" fill="#F0F0F0"/>
<path d="M385.823 280.065H313.554V295.235H385.823V280.065Z" fill="#1E1D1C"/>
<path d="M401.559 205.381H295.487V219.384H401.559V205.381Z" fill="#F0F0F0"/>
<path d="M453.43 358.833H0V360H453.43V358.833Z" fill="#3F3D56"/>
<path d="M419.734 360H287.219C283.076 359.995 279.104 358.345 276.174 355.412C273.244 352.479 271.596 348.503 271.591 344.355V97.9144C271.596 93.7665 273.244 89.7897 276.174 86.8567C279.104 83.9236 283.076 82.2738 287.219 82.269H419.734C423.878 82.2738 427.85 83.9236 430.78 86.8567C433.709 89.7897 435.357 93.7665 435.362 97.9144V344.355C435.357 348.503 433.709 352.479 430.78 355.412C427.85 358.345 423.878 359.995 419.734 360ZM287.219 83.436C283.385 83.4403 279.709 84.9671 276.998 87.6814C274.286 90.3957 272.761 94.0758 272.757 97.9144V344.355C272.761 348.193 274.286 351.873 276.998 354.588C279.709 357.302 283.385 358.829 287.219 358.833H419.734C423.569 358.829 427.245 357.302 429.956 354.588C432.667 351.873 434.192 348.193 434.197 344.355V97.9144C434.192 94.0758 432.667 90.3957 429.956 87.6814C427.245 84.9671 423.569 83.4403 419.734 83.436H287.219Z" fill="#3F3D56"/>
<path d="M337.741 93.9384C337.049 93.9384 336.373 93.7331 335.798 93.3484C335.223 92.9638 334.775 92.417 334.51 91.7773C334.246 91.1376 334.176 90.4337 334.311 89.7546C334.446 89.0755 334.779 88.4518 335.268 87.9622C335.757 87.4726 336.38 87.1391 337.059 87.0041C337.737 86.869 338.44 86.9383 339.079 87.2033C339.718 87.4682 340.264 87.9169 340.649 88.4927C341.033 89.0684 341.238 89.7452 341.238 90.4376C341.237 91.3658 340.868 92.2556 340.213 92.9119C339.557 93.5682 338.668 93.9374 337.741 93.9384ZM337.741 88.1037C337.28 88.1037 336.829 88.2406 336.446 88.4971C336.062 88.7535 335.764 89.118 335.587 89.5445C335.411 89.9709 335.365 90.4402 335.455 90.8929C335.545 91.3457 335.767 91.7615 336.093 92.0879C336.419 92.4143 336.834 92.6366 337.286 92.7266C337.738 92.8167 338.207 92.7705 338.633 92.5938C339.059 92.4172 339.423 92.1181 339.679 91.7342C339.936 91.3504 340.072 90.8992 340.072 90.4376C340.072 89.8188 339.826 89.2256 339.389 88.788C338.952 88.3505 338.359 88.1044 337.741 88.1037Z" fill="#3F3D56"/>
<path d="M372.127 89.8541H346.483V91.0211H372.127V89.8541Z" fill="#3F3D56"/>
<path d="M424.872 99.1896V145.867C412.506 145.867 400.647 140.949 391.903 132.195C383.16 123.441 378.247 111.569 378.247 99.1896H424.872Z" fill="#1E1D1C"/>
<path d="M425.455 344.246H281.5V98.6062H425.455V344.246ZM282.665 343.079H424.289V99.7731H282.665V343.079Z" fill="#3F3D56"/>
<path opacity="0.1" d="M391.068 142.95C399.759 142.95 406.804 135.897 406.804 127.196C406.804 118.496 399.759 111.442 391.068 111.442C382.378 111.442 375.333 118.496 375.333 127.196C375.333 135.897 382.378 142.95 391.068 142.95Z" fill="black"/>
<path d="M388.737 144.7C397.428 144.7 404.473 137.647 404.473 128.947C404.473 120.246 397.428 113.193 388.737 113.193C380.047 113.193 373.001 120.246 373.001 128.947C373.001 137.647 380.047 144.7 388.737 144.7Z" fill="#1E1D1C"/>
<path d="M310.057 108.525H287.91V116.694H310.057V108.525Z" fill="#3F3D56"/>
<path d="M322.296 186.126H300.149V194.295H322.296V186.126Z" fill="#3F3D56"/>
<path d="M407.387 216.467H300.149V201.297H407.387V216.467ZM301.315 215.3H406.222V202.464H301.315V215.3Z" fill="#3F3D56"/>
<path d="M401.559 249.724H295.487V263.728H401.559V249.724Z" fill="#F0F0F0"/>
<path d="M322.296 230.47H300.149V238.639H322.296V230.47Z" fill="#3F3D56"/>
<path d="M407.387 260.81H300.149V245.64H407.387V260.81ZM301.315 259.643H406.222V246.807H301.315V259.643Z" fill="#3F3D56"/>
<path d="M390.486 291.734H317.051V275.397H390.486V291.734ZM318.217 290.567H389.32V276.564H318.217V290.567Z" fill="#3F3D56"/>
<path d="M404.473 210.632C404.473 211.833 404.102 213.005 403.412 213.988C402.722 214.97 401.746 215.716 400.617 216.122C399.488 216.529 398.261 216.577 397.104 216.259C395.947 215.942 394.916 215.275 394.151 214.349L394.146 214.343C393.588 213.666 393.191 212.873 392.982 212.021C392.774 211.17 392.759 210.282 392.941 209.424C393.122 208.566 393.494 207.76 394.029 207.066C394.565 206.372 395.249 205.808 396.032 205.415C396.815 205.022 397.677 204.812 398.553 204.798C399.428 204.785 400.296 204.969 401.091 205.337C401.886 205.706 402.587 206.249 403.143 206.926C403.7 207.603 404.096 208.397 404.304 209.249C404.304 209.25 404.304 209.251 404.304 209.252C404.305 209.252 404.305 209.253 404.306 209.253C404.306 209.254 404.307 209.254 404.308 209.255C404.308 209.255 404.309 209.255 404.31 209.255C404.417 209.706 404.472 210.168 404.473 210.632Z" fill="#1E1D1C"/>
<path opacity="0.1" d="M404.473 210.632C404.473 211.833 404.103 213.005 403.412 213.988C402.722 214.97 401.746 215.716 400.617 216.122C399.488 216.529 398.261 216.577 397.104 216.259C395.947 215.942 394.916 215.275 394.151 214.349L394.146 214.343C394.038 213.892 393.983 213.43 393.982 212.966C393.983 211.765 394.353 210.593 395.043 209.61C395.733 208.628 396.709 207.882 397.838 207.476C398.967 207.069 400.194 207.021 401.351 207.339C402.509 207.656 403.54 208.323 404.304 209.249C404.304 209.25 404.304 209.251 404.304 209.252C404.305 209.252 404.305 209.253 404.306 209.253C404.306 209.254 404.307 209.254 404.308 209.255C404.308 209.255 404.309 209.255 404.31 209.255C404.418 209.706 404.472 210.168 404.473 210.632Z" fill="black"/>
<path d="M400.977 219.968C404.195 219.968 406.805 217.355 406.805 214.133C406.805 210.91 404.195 208.298 400.977 208.298C397.758 208.298 395.148 210.91 395.148 214.133C395.148 217.355 397.758 219.968 400.977 219.968Z" fill="#1E1D1C"/>
<path d="M404.473 254.976C404.473 256.177 404.102 257.349 403.412 258.331C402.722 259.314 401.746 260.059 400.617 260.466C399.488 260.873 398.261 260.92 397.104 260.603C395.947 260.286 394.916 259.618 394.151 258.692L394.146 258.687C393.588 258.01 393.191 257.216 392.982 256.365C392.774 255.513 392.759 254.625 392.941 253.768C393.122 252.91 393.494 252.104 394.029 251.41C394.565 250.716 395.249 250.151 396.032 249.759C396.815 249.366 397.677 249.155 398.553 249.142C399.428 249.128 400.296 249.313 401.091 249.681C401.886 250.049 402.587 250.592 403.143 251.27C403.7 251.947 404.096 252.741 404.304 253.593C404.304 253.594 404.304 253.594 404.304 253.595C404.305 253.596 404.305 253.596 404.306 253.597C404.306 253.598 404.307 253.598 404.308 253.598C404.308 253.599 404.309 253.599 404.31 253.599C404.417 254.05 404.472 254.512 404.473 254.976Z" fill="#1E1D1C"/>
<path opacity="0.1" d="M404.473 254.976C404.473 256.177 404.103 257.349 403.412 258.331C402.722 259.314 401.746 260.059 400.617 260.466C399.488 260.873 398.261 260.92 397.104 260.603C395.947 260.286 394.916 259.618 394.151 258.692L394.146 258.687C394.038 258.235 393.983 257.773 393.982 257.31C393.983 256.108 394.353 254.937 395.043 253.954C395.733 252.971 396.709 252.226 397.838 251.819C398.967 251.413 400.194 251.365 401.351 251.682C402.509 252 403.54 252.667 404.304 253.593C404.304 253.594 404.304 253.594 404.304 253.595C404.305 253.596 404.305 253.596 404.306 253.597C404.306 253.598 404.307 253.598 404.308 253.598C404.308 253.599 404.309 253.599 404.31 253.599C404.418 254.05 404.472 254.512 404.473 254.976Z" fill="black"/>
<path d="M400.977 264.311C404.195 264.311 406.805 261.699 406.805 258.477C406.805 255.254 404.195 252.642 400.977 252.642C397.758 252.642 395.148 255.254 395.148 258.477C395.148 261.699 397.758 264.311 400.977 264.311Z" fill="#1E1D1C"/>
<path d="M303.064 28.0065H272.757V58.3468H303.064V28.0065Z" fill="#F0F0F0"/>
<path d="M391.068 50.1783C389.685 50.1783 388.333 49.7677 387.183 48.9983C386.033 48.229 385.136 47.1355 384.607 45.8561C384.078 44.5767 383.939 43.1689 384.209 41.8107C384.479 40.4525 385.145 39.205 386.123 38.2258C387.101 37.2466 388.347 36.5797 389.704 36.3096C391.061 36.0394 392.467 36.1781 393.745 36.708C395.023 37.238 396.115 38.1354 396.884 39.2868C397.652 40.4382 398.062 41.7919 398.062 43.1767C398.06 45.033 397.323 46.8127 396.012 48.1253C394.7 49.4379 392.923 50.1762 391.068 50.1783ZM391.068 37.342C389.916 37.342 388.789 37.6842 387.831 38.3253C386.872 38.9664 386.125 39.8777 385.684 40.9438C385.243 42.01 385.127 43.1831 385.352 44.315C385.577 45.4468 386.132 46.4864 386.947 47.3024C387.762 48.1184 388.801 48.6741 389.931 48.8992C391.062 49.1244 392.234 49.0088 393.299 48.5672C394.364 48.1256 395.274 47.3778 395.914 46.4183C396.555 45.4587 396.897 44.3307 396.897 43.1767C396.895 41.6298 396.28 40.1467 395.188 39.0529C394.095 37.959 392.614 37.3438 391.068 37.342Z" fill="#3F3D56"/>
<path d="M237.205 147.618H222.052V132.447H237.205V147.618ZM223.218 146.451H236.04V133.614H223.218V146.451Z" fill="#3F3D56"/>
<path d="M468 260.81H452.847V245.64H468V260.81ZM454.012 259.643H466.834V246.807H454.012V259.643Z" fill="#3F3D56"/>
<path d="M169.018 159.092L171.618 160.494L180.466 165.269L194.751 172.974L203.076 157.511C203.86 156.058 204.35 154.465 204.518 152.822C204.687 151.179 204.529 149.519 204.056 147.938C203.583 146.356 202.802 144.883 201.76 143.603C200.717 142.323 199.433 141.262 197.98 140.48C194.875 138.802 191.319 138.153 187.822 138.628C184.326 139.103 181.07 140.677 178.525 143.123L178.52 143.127C177.268 144.331 176.211 145.724 175.388 147.255L169.018 159.092Z" fill="#2F2E41"/>
<path d="M208.006 316.787L206.261 336.005L199.716 336.879L195.354 315.039L208.006 316.787Z" fill="#FFB8B8"/>
<path d="M197.971 336.879C197.971 336.879 206.261 332.511 208.006 336.006C208.006 336.006 206.697 346.489 211.933 347.799C217.169 349.11 219.35 358.282 211.933 359.156C204.516 360.03 199.716 357.409 197.099 357.409C194.481 357.409 197.099 348.236 197.099 348.236L197.971 336.879Z" fill="#2F2E41"/>
<path d="M155.213 316.787L156.958 336.005L163.503 336.879L167.866 315.039L155.213 316.787Z" fill="#FFB8B8"/>
<path d="M165.248 336.879C165.248 336.879 156.958 332.511 155.213 336.006C155.213 336.006 156.522 346.489 151.286 347.799C146.05 349.11 143.869 358.282 151.286 359.156C158.703 360.03 163.503 357.409 166.121 357.409C168.738 357.409 166.121 348.236 166.121 348.236L165.248 336.879Z" fill="#2F2E41"/>
<path d="M190.991 162.595C197.256 162.595 202.335 157.511 202.335 151.239C202.335 144.966 197.256 139.882 190.991 139.882C184.725 139.882 179.646 144.966 179.646 151.239C179.646 157.511 184.725 162.595 190.991 162.595Z" fill="#FFB8B8"/>
<path d="M154.776 173.515L163.939 187.93L174.847 187.056L192.736 188.367C192.736 188.367 194.424 184.986 195.803 181.697C196.558 180.054 197.138 178.337 197.535 176.573C197.971 173.515 191.863 170.458 191.863 170.458C191.863 170.458 191.623 170.414 191.222 170.318C190.689 170.191 189.869 169.982 188.97 169.676C186.941 168.986 184.502 167.815 184.009 166.09C183.137 163.032 189.681 158.664 189.681 158.664L181.828 151.239C181.828 151.239 174.851 160.94 166.378 163.15C165.887 163.28 165.388 163.382 164.886 163.456C164.86 163.46 164.838 163.465 164.812 163.469C155.649 164.779 154.776 173.515 154.776 173.515Z" fill="#FFB8B8"/>
<path d="M159.576 169.584L154.776 173.515C154.776 173.515 150.85 192.298 152.159 197.54C153.467 202.781 151.722 207.586 151.722 208.46C151.722 209.333 147.795 242.093 147.795 242.093C147.795 242.093 139.942 259.565 148.232 257.818C156.522 256.071 153.467 238.599 153.467 238.599L163.503 208.023V182.251L159.576 169.584Z" fill="#FFB8B8"/>
<path d="M194.045 173.079L197.535 175.699L199.28 212.391L212.37 243.84C212.37 243.84 221.968 259.129 215.86 259.565C209.752 260.002 205.825 243.84 205.825 243.84L194.045 213.701L192.299 184.435L194.045 173.079Z" fill="#FFB8B8"/>
<path d="M172.229 175.699C172.229 175.699 180.955 181.815 194.917 179.631C194.917 179.631 198.844 187.493 196.662 191.861C194.481 196.229 199.28 206.712 200.153 208.023C201.026 209.333 211.061 236.415 214.551 265.68C218.042 294.946 227.641 315.039 219.351 317.66C211.061 320.281 194.045 323.338 192.299 320.717C190.554 318.097 187.936 253.013 187.936 253.013L183.137 277.911C183.137 277.911 189.681 320.281 184.882 321.154C180.083 322.028 149.977 319.407 150.85 314.165C151.722 308.924 160.449 281.405 160.449 281.405C160.449 281.405 160.012 226.368 168.738 215.885C168.738 215.885 172.229 210.207 167.43 202.781C162.63 195.355 163.066 183.562 163.066 183.562C163.066 183.562 166.557 183.562 172.229 175.699Z" fill="#2F2E41"/>
<path d="M164.886 163.456L172.229 179.631L173.974 178.757L166.378 163.15L164.886 163.456Z" fill="#2F2E41"/>
<path d="M188.97 169.676L194.481 181.815L195.803 181.697L195.353 179.631L191.222 170.318C190.689 170.191 189.869 169.982 188.97 169.676Z" fill="#2F2E41"/>
<path d="M171.618 160.494C172.038 161.846 172.846 163.043 173.942 163.936C175.038 164.83 176.374 165.379 177.78 165.516C179.187 165.653 180.603 165.372 181.851 164.707C183.099 164.042 184.123 163.023 184.795 161.779C179.275 154.554 184.009 150.016 192.975 146.582C193.651 145.327 193.938 143.9 193.8 142.481C193.663 141.062 193.107 139.716 192.203 138.615C189.732 138.299 187.221 138.539 184.854 139.319C182.488 140.099 180.325 141.399 178.525 143.123L178.52 143.127L172.15 154.956C171.697 155.797 171.416 156.72 171.324 157.671C171.233 158.622 171.333 159.582 171.618 160.494Z" fill="#2F2E41"/>
<path d="M184.228 155.17C185.071 155.17 185.755 153.996 185.755 152.549C185.755 151.102 185.071 149.928 184.228 149.928C183.384 149.928 182.701 151.102 182.701 152.549C182.701 153.996 183.384 155.17 184.228 155.17Z" fill="#FFB8B8"/>
<path d="M188.778 148.273L201.894 154.222L204.298 148.91C203.884 146.969 203.017 145.154 201.767 143.612L192.74 139.519L188.778 148.273Z" fill="#2F2E41"/>
<path d="M220.304 265.478C223.523 265.478 226.132 262.866 226.132 259.643C226.132 256.421 223.523 253.809 220.304 253.809C217.085 253.809 214.476 256.421 214.476 259.643C214.476 262.866 217.085 265.478 220.304 265.478Z" fill="#1E1D1C"/>
<path d="M33.1951 300.163C35.2987 300.163 37.004 298.456 37.004 296.35C37.004 294.244 35.2987 292.537 33.1951 292.537C31.0915 292.537 29.3862 294.244 29.3862 296.35C29.3862 298.456 31.0915 300.163 33.1951 300.163Z" fill="#FF6584"/>
<path d="M52.4386 316.224H51.2729V359.64H52.4386V316.224Z" fill="#3F3D56"/>
<path d="M51.856 322.363C55.2431 322.363 57.9888 319.615 57.9888 316.224C57.9888 312.833 55.2431 310.084 51.856 310.084C48.4689 310.084 45.7231 312.833 45.7231 316.224C45.7231 319.615 48.4689 322.363 51.856 322.363Z" fill="#3F3D56"/>
<path d="M51.8561 342.982C51.8561 342.982 50.98 324.118 33.0195 326.31L51.8561 342.982Z" fill="#3F3D56"/>
</svg>
